<svg width="137" height="321" viewBox="0 0 137 321" fill="none" xmlns="http://www.w3.org/2000/svg">
<path d="M128.798 4.23999C128.798 6.58167 130.634 8.47998 132.899 8.47998C135.164 8.47998 137 6.58167 137 4.23999C137 1.89831 135.164 -8.29717e-08 132.899 -1.85322e-07C130.634 -2.87673e-07 128.798 1.89831 128.798 4.23999Z" fill="#C94D35"/>
<path d="M86.078 4.23999C86.078 6.58167 87.9142 8.47998 90.1792 8.47998C92.4441 8.47998 94.2803 6.58167 94.2803 4.23999C94.2803 1.89831 92.4441 -8.29722e-08 90.1792 -1.85323e-07C87.9142 -2.87675e-07 86.078 1.89831 86.078 4.23999Z" fill="#C94D35"/>
<path d="M43.3585 4.23999C43.3585 6.58167 45.1946 8.47998 47.4596 8.47998C49.7246 8.47998 51.5607 6.58167 51.5607 4.23999C51.5607 1.89831 49.7246 -8.29715e-08 47.4596 -1.85322e-07C45.1946 -2.87673e-07 43.3585 1.89831 43.3585 4.23999Z" fill="#C94D35"/>
<path d="M0.638779 4.23999C0.638778 6.58167 2.4749 8.47998 4.73986 8.47998C7.00483 8.47998 8.84094 6.58167 8.84094 4.23999C8.84094 1.89831 7.00483 -8.29715e-08 4.73986 -1.85322e-07C2.4749 -2.87673e-07 0.638779 1.89831 0.638779 4.23999Z" fill="#C94D35"/>
<path d="M128.798 48.7603C128.798 51.1019 130.634 53.0002 132.899 53.0002C135.164 53.0002 137 51.1019 137 48.7603C137 46.4186 135.164 44.5203 132.899 44.5203C130.634 44.5203 128.798 46.4186 128.798 48.7603Z" fill="#C94D35"/>
<path d="M86.078 48.7603C86.078 51.1019 87.9142 53.0002 90.1792 53.0002C92.4441 53.0002 94.2803 51.1019 94.2803 48.7603C94.2803 46.4186 92.4441 44.5203 90.1792 44.5203C87.9142 44.5203 86.078 46.4186 86.078 48.7603Z" fill="#C94D35"/>
<path d="M43.3585 48.7603C43.3585 51.1019 45.1946 53.0002 47.4596 53.0002C49.7246 53.0002 51.5607 51.1019 51.5607 48.7603C51.5607 46.4186 49.7246 44.5203 47.4596 44.5203C45.1946 44.5203 43.3585 46.4186 43.3585 48.7603Z" fill="#C94D35"/>
<path d="M0.638779 48.7603C0.638778 51.1019 2.4749 53.0002 4.73986 53.0002C7.00483 53.0002 8.84094 51.1019 8.84094 48.7603C8.84094 46.4186 7.00483 44.5203 4.73986 44.5203C2.4749 44.5203 0.638779 46.4186 0.638779 48.7603Z" fill="#C94D35"/>
<path d="M128.798 93.2808C128.798 95.6224 130.634 97.5208 132.899 97.5208C135.164 97.5208 137 95.6224 137 93.2808C137 90.9391 135.164 89.0408 132.899 89.0408C130.634 89.0408 128.798 90.9391 128.798 93.2808Z" fill="#C94D35"/>
<path d="M86.078 93.2808C86.078 95.6224 87.9142 97.5208 90.1792 97.5208C92.4441 97.5208 94.2803 95.6224 94.2803 93.2808C94.2803 90.9391 92.4441 89.0408 90.1792 89.0408C87.9142 89.0408 86.078 90.9391 86.078 93.2808Z" fill="#C94D35"/>
<path d="M43.3585 93.2808C43.3585 95.6224 45.1946 97.5208 47.4596 97.5208C49.7246 97.5208 51.5607 95.6224 51.5607 93.2808C51.5607 90.9391 49.7246 89.0408 47.4596 89.0408C45.1946 89.0408 43.3585 90.9391 43.3585 93.2808Z" fill="#C94D35"/>
<path d="M0.638779 93.2808C0.638778 95.6224 2.4749 97.5208 4.73986 97.5208C7.00483 97.5208 8.84094 95.6224 8.84094 93.2808C8.84094 90.9391 7.00483 89.0408 4.73986 89.0408C2.4749 89.0408 0.638779 90.9391 0.638779 93.2808Z" fill="#C94D35"/>
<path d="M128.798 137.801C128.798 140.143 130.634 142.041 132.899 142.041C135.164 142.041 137 140.143 137 137.801C137 135.46 135.164 133.561 132.899 133.561C130.634 133.561 128.798 135.46 128.798 137.801Z" fill="#C94D35"/>
<path d="M86.078 137.801C86.078 140.143 87.9142 142.041 90.1792 142.041C92.4441 142.041 94.2803 140.143 94.2803 137.801C94.2803 135.46 92.4441 133.561 90.1792 133.561C87.9142 133.561 86.078 135.46 86.078 137.801Z" fill="#C94D35"/>
<path d="M43.3585 137.801C43.3585 140.143 45.1946 142.041 47.4596 142.041C49.7246 142.041 51.5607 140.143 51.5607 137.801C51.5607 135.46 49.7246 133.561 47.4596 133.561C45.1946 133.561 43.3585 135.46 43.3585 137.801Z" fill="#C94D35"/>
<path d="M0.638779 137.801C0.638778 140.143 2.4749 142.041 4.73986 142.041C7.00483 142.041 8.84094 140.143 8.84094 137.801C8.84094 135.46 7.00483 133.561 4.73986 133.561C2.4749 133.561 0.638779 135.46 0.638779 137.801Z" fill="#C94D35"/>
<path d="M128.798 182.675C128.798 185.016 130.634 186.915 132.899 186.915C135.164 186.915 137 185.016 137 182.675C137 180.333 135.164 178.435 132.899 178.435C130.634 178.435 128.798 180.333 128.798 182.675Z" fill="#C94D35"/>
<path d="M86.078 182.675C86.078 185.016 87.9142 186.915 90.1791 186.915C92.4441 186.915 94.2803 185.016 94.2803 182.675C94.2803 180.333 92.4441 178.435 90.1791 178.435C87.9142 178.435 86.078 180.333 86.078 182.675Z" fill="#C94D35"/>
<path d="M43.3585 182.675C43.3585 185.016 45.1946 186.915 47.4596 186.915C49.7245 186.915 51.5607 185.016 51.5607 182.675C51.5607 180.333 49.7245 178.435 47.4596 178.435C45.1946 178.435 43.3585 180.333 43.3585 182.675Z" fill="#C94D35"/>
<path d="M0.638733 182.675C0.638733 185.016 2.47486 186.915 4.73984 186.915C7.00481 186.915 8.84094 185.016 8.84094 182.675C8.84094 180.333 7.00482 178.435 4.73984 178.435C2.47486 178.435 0.638733 180.333 0.638733 182.675Z" fill="#C94D35"/>
<path d="M128.798 227.195C128.798 229.537 130.634 231.436 132.899 231.436C135.164 231.436 137 229.537 137 227.195C137 224.854 135.164 222.955 132.899 222.955C130.634 222.955 128.798 224.854 128.798 227.195Z" fill="#C94D35"/>
<path d="M86.0781 227.195C86.0781 229.537 87.9142 231.436 90.1792 231.436C92.4441 231.436 94.2803 229.537 94.2803 227.195C94.2803 224.854 92.4441 222.955 90.1792 222.955C87.9142 222.955 86.0781 224.854 86.0781 227.195Z" fill="#C94D35"/>
<path d="M43.3585 227.195C43.3585 229.537 45.1946 231.436 47.4596 231.436C49.7246 231.436 51.5607 229.537 51.5607 227.195C51.5607 224.854 49.7246 222.955 47.4596 222.955C45.1946 222.955 43.3585 224.854 43.3585 227.195Z" fill="#C94D35"/>
<path d="M0.638779 227.195C0.638778 229.537 2.4749 231.436 4.73986 231.436C7.00483 231.436 8.84094 229.537 8.84094 227.195C8.84094 224.854 7.00483 222.955 4.73986 222.955C2.4749 222.955 0.638779 224.854 0.638779 227.195Z" fill="#C94D35"/>
<path d="M128.798 271.715C128.798 274.057 130.634 275.956 132.899 275.956C135.164 275.956 137 274.057 137 271.715C137 269.374 135.164 267.475 132.899 267.475C130.634 267.475 128.798 269.374 128.798 271.715Z" fill="#C94D35"/>
<path d="M86.0781 271.715C86.0781 274.057 87.9142 275.956 90.1792 275.956C92.4441 275.956 94.2803 274.057 94.2803 271.715C94.2803 269.374 92.4441 267.475 90.1792 267.475C87.9142 267.475 86.0781 269.374 86.0781 271.715Z" fill="#C94D35"/>
<path d="M43.3585 271.715C43.3585 274.057 45.1946 275.956 47.4596 275.956C49.7246 275.956 51.5607 274.057 51.5607 271.715C51.5607 269.374 49.7246 267.475 47.4596 267.475C45.1946 267.475 43.3585 269.374 43.3585 271.715Z" fill="#C94D35"/>
<path d="M0.638779 271.715C0.638778 274.057 2.4749 275.956 4.73986 275.956C7.00483 275.956 8.84094 274.057 8.84094 271.715C8.84094 269.374 7.00483 267.475 4.73986 267.475C2.4749 267.475 0.638779 269.374 0.638779 271.715Z" fill="#C94D35"/>
<path d="M128.798 316.236C128.798 318.578 130.634 320.476 132.899 320.476C135.164 320.476 137 318.578 137 316.236C137 313.894 135.164 311.996 132.899 311.996C130.634 311.996 128.798 313.894 128.798 316.236Z" fill="#C94D35"/>
<path d="M86.078 316.236C86.078 318.578 87.9142 320.476 90.1792 320.476C92.4441 320.476 94.2803 318.578 94.2803 316.236C94.2803 313.894 92.4441 311.996 90.1792 311.996C87.9142 311.996 86.078 313.894 86.078 316.236Z" fill="#C94D35"/>
<path d="M43.3585 316.236C43.3585 318.578 45.1946 320.476 47.4596 320.476C49.7246 320.476 51.5607 318.578 51.5607 316.236C51.5607 313.894 49.7246 311.996 47.4596 311.996C45.1946 311.996 43.3585 313.894 43.3585 316.236Z" fill="#C94D35"/>
<path d="M0.638779 316.236C0.638778 318.578 2.4749 320.476 4.73986 320.476C7.00483 320.476 8.84094 318.578 8.84094 316.236C8.84094 313.894 7.00483 311.996 4.73986 311.996C2.4749 311.996 0.638779 313.894 0.638779 316.236Z" fill="#C94D35"/>
</svg>
