<svg width="168" height="175" viewBox="0 0 168 175" fill="none" xmlns="http://www.w3.org/2000/svg">
<path d="M162.991 2.30837C162.991 3.58325 163.99 4.61674 165.223 4.61674C166.457 4.61674 167.456 3.58325 167.456 2.30837C167.456 1.03349 166.457 -4.51711e-08 165.223 -1.00892e-07C163.99 -1.56614e-07 162.991 1.03349 162.991 2.30837Z" fill="#888888"/>
<path d="M139.733 2.30837C139.733 3.58325 140.733 4.61674 141.966 4.61674C143.199 4.61674 144.198 3.58325 144.198 2.30837C144.198 1.03349 143.199 -4.51733e-08 141.966 -1.00897e-07C140.733 -1.56621e-07 139.733 1.03349 139.733 2.30837Z" fill="#888888"/>
<path d="M116.475 2.30837C116.475 3.58325 117.475 4.61674 118.708 4.61674C119.941 4.61674 120.941 3.58325 120.941 2.30837C120.941 1.03349 119.941 -4.51721e-08 118.708 -1.00895e-07C117.475 -1.56617e-07 116.475 1.03349 116.475 2.30837Z" fill="#888888"/>
<path d="M93.2172 2.30837C93.2172 3.58325 94.2169 4.61674 95.45 4.61674C96.6831 4.61674 97.6828 3.58325 97.6828 2.30837C97.6828 1.03349 96.6831 -4.51723e-08 95.45 -1.00895e-07C94.2169 -1.56618e-07 93.2172 1.03349 93.2172 2.30837Z" fill="#888888"/>
<path d="M69.7734 2.30837C69.7734 3.58325 70.773 4.61674 72.0061 4.61674C73.2392 4.61674 74.2389 3.58325 74.2389 2.30837C74.2389 1.03349 73.2392 -4.51721e-08 72.0061 -1.00895e-07C70.773 -1.56617e-07 69.7734 1.03349 69.7734 2.30837Z" fill="#888888"/>
<path d="M46.5156 2.30837C46.5156 3.58325 47.5152 4.61674 48.7483 4.61674C49.9815 4.61674 50.9811 3.58325 50.9811 2.30837C50.9811 1.03349 49.9815 -4.51724e-08 48.7483 -1.00895e-07C47.5152 -1.56618e-07 46.5156 1.03349 46.5156 2.30837Z" fill="#888888"/>
<path d="M23.2578 2.30837C23.2578 3.58325 24.2574 4.61674 25.4906 4.61674C26.7237 4.61674 27.7233 3.58325 27.7233 2.30837C27.7233 1.03349 26.7237 -4.5172e-08 25.4906 -1.00895e-07C24.2574 -1.56617e-07 23.2578 1.03349 23.2578 2.30837Z" fill="#888888"/>
<path d="M-1.91711e-05 2.30837C-1.9225e-05 3.58325 0.999614 4.61674 2.23272 4.61674C3.46584 4.61674 4.46547 3.58325 4.46547 2.30837C4.46547 1.03349 3.46584 -4.5172e-08 2.23273 -1.00895e-07C0.999614 -1.56617e-07 -1.91172e-05 1.03349 -1.91711e-05 2.30837Z" fill="#888888"/>
<path d="M162.991 26.5465C162.991 27.8213 163.99 28.8548 165.223 28.8548C166.457 28.8548 167.456 27.8213 167.456 26.5465C167.456 25.2716 166.457 24.2381 165.223 24.2381C163.99 24.2381 162.991 25.2716 162.991 26.5465Z" fill="#888888"/>
<path d="M139.733 26.5465C139.733 27.8213 140.733 28.8548 141.966 28.8548C143.199 28.8548 144.198 27.8213 144.198 26.5465C144.198 25.2716 143.199 24.2381 141.966 24.2381C140.733 24.2381 139.733 25.2716 139.733 26.5465Z" fill="#888888"/>
<path d="M116.475 26.5465C116.475 27.8213 117.475 28.8548 118.708 28.8548C119.941 28.8548 120.941 27.8213 120.941 26.5465C120.941 25.2716 119.941 24.2381 118.708 24.2381C117.475 24.2381 116.475 25.2716 116.475 26.5465Z" fill="#888888"/>
<path d="M93.2172 26.5465C93.2172 27.8213 94.2169 28.8548 95.45 28.8548C96.6831 28.8548 97.6828 27.8213 97.6828 26.5465C97.6828 25.2716 96.6831 24.2381 95.45 24.2381C94.2169 24.2381 93.2172 25.2716 93.2172 26.5465Z" fill="#888888"/>
<path d="M69.7734 26.5465C69.7734 27.8213 70.773 28.8548 72.0061 28.8548C73.2392 28.8548 74.2389 27.8213 74.2389 26.5465C74.2389 25.2716 73.2392 24.2381 72.0061 24.2381C70.773 24.2381 69.7734 25.2716 69.7734 26.5465Z" fill="#888888"/>
<path d="M46.5156 26.5465C46.5156 27.8213 47.5152 28.8548 48.7483 28.8548C49.9815 28.8548 50.9811 27.8213 50.9811 26.5465C50.9811 25.2716 49.9815 24.2381 48.7483 24.2381C47.5152 24.2381 46.5156 25.2716 46.5156 26.5465Z" fill="#888888"/>
<path d="M23.2578 26.5465C23.2578 27.8213 24.2574 28.8548 25.4906 28.8548C26.7237 28.8548 27.7233 27.8213 27.7233 26.5465C27.7233 25.2716 26.7237 24.2381 25.4906 24.2381C24.2574 24.2381 23.2578 25.2716 23.2578 26.5465Z" fill="#888888"/>
<path d="M-1.91681e-05 26.5465C-1.92204e-05 27.8213 0.999614 28.8548 2.23272 28.8548C3.46584 28.8548 4.46547 27.8213 4.46547 26.5465C4.46547 25.2716 3.46584 24.2381 2.23273 24.2381C0.999614 24.2381 -1.91159e-05 25.2716 -1.91681e-05 26.5465Z" fill="#888888"/>
<path d="M162.991 50.7847C162.991 52.0596 163.99 53.0931 165.223 53.0931C166.457 53.0931 167.456 52.0596 167.456 50.7847C167.456 49.5098 166.457 48.4763 165.223 48.4763C163.99 48.4763 162.991 49.5098 162.991 50.7847Z" fill="#888888"/>
<path d="M139.733 50.7847C139.733 52.0596 140.733 53.0931 141.966 53.0931C143.199 53.0931 144.198 52.0596 144.198 50.7847C144.198 49.5098 143.199 48.4763 141.966 48.4763C140.733 48.4763 139.733 49.5098 139.733 50.7847Z" fill="#888888"/>
<path d="M116.475 50.7847C116.475 52.0596 117.475 53.0931 118.708 53.0931C119.941 53.0931 120.941 52.0596 120.941 50.7847C120.941 49.5098 119.941 48.4763 118.708 48.4763C117.475 48.4763 116.475 49.5098 116.475 50.7847Z" fill="#888888"/>
<path d="M93.2172 50.7847C93.2172 52.0596 94.2169 53.0931 95.45 53.0931C96.6831 53.0931 97.6828 52.0596 97.6828 50.7847C97.6828 49.5098 96.6831 48.4763 95.45 48.4763C94.2169 48.4763 93.2172 49.5098 93.2172 50.7847Z" fill="#888888"/>
<path d="M69.7734 50.7847C69.7734 52.0596 70.773 53.0931 72.0061 53.0931C73.2392 53.0931 74.2389 52.0596 74.2389 50.7847C74.2389 49.5098 73.2392 48.4763 72.0061 48.4763C70.773 48.4763 69.7734 49.5098 69.7734 50.7847Z" fill="#888888"/>
<path d="M46.5156 50.7847C46.5156 52.0596 47.5152 53.0931 48.7483 53.0931C49.9815 53.0931 50.9811 52.0596 50.9811 50.7847C50.9811 49.5098 49.9815 48.4763 48.7483 48.4763C47.5152 48.4763 46.5156 49.5098 46.5156 50.7847Z" fill="#888888"/>
<path d="M23.2578 50.7847C23.2578 52.0596 24.2574 53.0931 25.4906 53.0931C26.7237 53.0931 27.7233 52.0596 27.7233 50.7847C27.7233 49.5098 26.7237 48.4763 25.4906 48.4763C24.2574 48.4763 23.2578 49.5098 23.2578 50.7847Z" fill="#888888"/>
<path d="M-1.91681e-05 50.7847C-1.92204e-05 52.0596 0.999614 53.0931 2.23272 53.0931C3.46584 53.0931 4.46547 52.0596 4.46547 50.7847C4.46547 49.5098 3.46584 48.4763 2.23273 48.4763C0.999614 48.4763 -1.91159e-05 49.5098 -1.91681e-05 50.7847Z" fill="#888888"/>
<path d="M162.991 75.0229C162.991 76.2978 163.99 77.3313 165.223 77.3313C166.457 77.3313 167.456 76.2978 167.456 75.0229C167.456 73.748 166.457 72.7145 165.223 72.7145C163.99 72.7145 162.991 73.748 162.991 75.0229Z" fill="#888888"/>
<path d="M139.733 75.0229C139.733 76.2978 140.733 77.3313 141.966 77.3313C143.199 77.3313 144.198 76.2978 144.198 75.0229C144.198 73.748 143.199 72.7145 141.966 72.7145C140.733 72.7145 139.733 73.748 139.733 75.0229Z" fill="#888888"/>
<path d="M116.475 75.0229C116.475 76.2978 117.475 77.3313 118.708 77.3313C119.941 77.3313 120.941 76.2978 120.941 75.0229C120.941 73.748 119.941 72.7145 118.708 72.7145C117.475 72.7145 116.475 73.748 116.475 75.0229Z" fill="#888888"/>
<path d="M93.2172 75.0229C93.2172 76.2978 94.2169 77.3313 95.45 77.3313C96.6831 77.3313 97.6828 76.2978 97.6828 75.0229C97.6828 73.748 96.6831 72.7145 95.45 72.7145C94.2169 72.7145 93.2172 73.748 93.2172 75.0229Z" fill="#888888"/>
<path d="M69.7734 75.0229C69.7734 76.2978 70.773 77.3313 72.0061 77.3313C73.2392 77.3313 74.2389 76.2978 74.2389 75.0229C74.2389 73.748 73.2392 72.7145 72.0061 72.7145C70.773 72.7145 69.7734 73.748 69.7734 75.0229Z" fill="#888888"/>
<path d="M46.5156 75.0229C46.5156 76.2978 47.5152 77.3313 48.7483 77.3313C49.9815 77.3313 50.9811 76.2978 50.9811 75.0229C50.9811 73.748 49.9815 72.7145 48.7483 72.7145C47.5152 72.7145 46.5156 73.748 46.5156 75.0229Z" fill="#888888"/>
<path d="M23.2578 75.0229C23.2578 76.2978 24.2574 77.3313 25.4906 77.3313C26.7237 77.3313 27.7233 76.2978 27.7233 75.0229C27.7233 73.748 26.7237 72.7145 25.4906 72.7145C24.2574 72.7145 23.2578 73.748 23.2578 75.0229Z" fill="#888888"/>
<path d="M-1.91681e-05 75.0229C-1.92204e-05 76.2978 0.999614 77.3313 2.23272 77.3313C3.46584 77.3313 4.46547 76.2978 4.46547 75.0229C4.46547 73.748 3.46584 72.7145 2.23273 72.7145C0.999614 72.7145 -1.91159e-05 73.748 -1.91681e-05 75.0229Z" fill="#888888"/>
<path d="M162.991 99.4533C162.991 100.728 163.99 101.762 165.223 101.762C166.457 101.762 167.456 100.728 167.456 99.4533C167.456 98.1784 166.457 97.1449 165.223 97.1449C163.99 97.1449 162.991 98.1784 162.991 99.4533Z" fill="#888888"/>
<path d="M139.733 99.4533C139.733 100.728 140.733 101.762 141.966 101.762C143.199 101.762 144.198 100.728 144.198 99.4533C144.198 98.1784 143.199 97.1449 141.966 97.1449C140.733 97.1449 139.733 98.1784 139.733 99.4533Z" fill="#888888"/>
<path d="M116.475 99.4533C116.475 100.728 117.475 101.762 118.708 101.762C119.941 101.762 120.941 100.728 120.941 99.4533C120.941 98.1784 119.941 97.1449 118.708 97.1449C117.475 97.1449 116.475 98.1784 116.475 99.4533Z" fill="#888888"/>
<path d="M93.2172 99.4533C93.2172 100.728 94.2169 101.762 95.45 101.762C96.6831 101.762 97.6828 100.728 97.6828 99.4533C97.6828 98.1784 96.6831 97.1449 95.45 97.1449C94.2169 97.1449 93.2172 98.1784 93.2172 99.4533Z" fill="#888888"/>
<path d="M69.7734 99.4533C69.7734 100.728 70.773 101.762 72.0061 101.762C73.2392 101.762 74.2389 100.728 74.2389 99.4533C74.2389 98.1784 73.2392 97.1449 72.0061 97.1449C70.773 97.1449 69.7734 98.1784 69.7734 99.4533Z" fill="#888888"/>
<path d="M46.5156 99.4533C46.5156 100.728 47.5152 101.762 48.7483 101.762C49.9815 101.762 50.9811 100.728 50.9811 99.4533C50.9811 98.1785 49.9815 97.145 48.7483 97.145C47.5152 97.145 46.5156 98.1785 46.5156 99.4533Z" fill="#888888"/>
<path d="M23.2578 99.4533C23.2578 100.728 24.2574 101.762 25.4905 101.762C26.7237 101.762 27.7233 100.728 27.7233 99.4533C27.7233 98.1785 26.7237 97.145 25.4905 97.145C24.2574 97.145 23.2578 98.1785 23.2578 99.4533Z" fill="#888888"/>
<path d="M-2.87049e-05 99.4533C-2.87572e-05 100.728 0.99961 101.762 2.23273 101.762C3.46585 101.762 4.46548 100.728 4.46548 99.4533C4.46548 98.1785 3.46585 97.145 2.23273 97.145C0.999611 97.145 -2.86526e-05 98.1785 -2.87049e-05 99.4533Z" fill="#888888"/>
<path d="M162.991 123.692C162.991 124.966 163.99 126 165.223 126C166.457 126 167.456 124.966 167.456 123.692C167.456 122.417 166.457 121.383 165.223 121.383C163.99 121.383 162.991 122.417 162.991 123.692Z" fill="#888888"/>
<path d="M139.733 123.692C139.733 124.966 140.733 126 141.966 126C143.199 126 144.198 124.966 144.198 123.692C144.198 122.417 143.199 121.383 141.966 121.383C140.733 121.383 139.733 122.417 139.733 123.692Z" fill="#888888"/>
<path d="M116.475 123.692C116.475 124.966 117.475 126 118.708 126C119.941 126 120.941 124.966 120.941 123.692C120.941 122.417 119.941 121.383 118.708 121.383C117.475 121.383 116.475 122.417 116.475 123.692Z" fill="#888888"/>
<path d="M93.2172 123.692C93.2172 124.966 94.2169 126 95.45 126C96.6831 126 97.6828 124.966 97.6828 123.692C97.6828 122.417 96.6831 121.383 95.45 121.383C94.2169 121.383 93.2172 122.417 93.2172 123.692Z" fill="#888888"/>
<path d="M69.7734 123.692C69.7734 124.966 70.773 126 72.0061 126C73.2392 126 74.2389 124.966 74.2389 123.692C74.2389 122.417 73.2392 121.383 72.0061 121.383C70.773 121.383 69.7734 122.417 69.7734 123.692Z" fill="#888888"/>
<path d="M46.5156 123.692C46.5156 124.966 47.5152 126 48.7484 126C49.9815 126 50.9811 124.966 50.9811 123.692C50.9811 122.417 49.9815 121.383 48.7484 121.383C47.5152 121.383 46.5156 122.417 46.5156 123.692Z" fill="#888888"/>
<path d="M23.2578 123.692C23.2578 124.966 24.2574 126 25.4906 126C26.7237 126 27.7233 124.966 27.7233 123.692C27.7233 122.417 26.7237 121.383 25.4906 121.383C24.2574 121.383 23.2578 122.417 23.2578 123.692Z" fill="#888888"/>
<path d="M-3.90935e-06 123.692C-3.96163e-06 124.966 0.99963 126 2.23274 126C3.46585 126 4.46548 124.966 4.46548 123.692C4.46548 122.417 3.46585 121.383 2.23274 121.383C0.99963 121.383 -3.85708e-06 122.417 -3.90935e-06 123.692Z" fill="#888888"/>
<path d="M162.991 147.93C162.991 149.204 163.99 150.238 165.223 150.238C166.457 150.238 167.456 149.204 167.456 147.93C167.456 146.655 166.457 145.621 165.223 145.621C163.99 145.621 162.991 146.655 162.991 147.93Z" fill="#888888"/>
<path d="M139.733 147.93C139.733 149.204 140.733 150.238 141.966 150.238C143.199 150.238 144.198 149.204 144.198 147.93C144.198 146.655 143.199 145.621 141.966 145.621C140.733 145.621 139.733 146.655 139.733 147.93Z" fill="#888888"/>
<path d="M116.475 147.93C116.475 149.204 117.475 150.238 118.708 150.238C119.941 150.238 120.941 149.204 120.941 147.93C120.941 146.655 119.941 145.621 118.708 145.621C117.475 145.621 116.475 146.655 116.475 147.93Z" fill="#888888"/>
<path d="M93.2172 147.93C93.2172 149.204 94.2169 150.238 95.45 150.238C96.6831 150.238 97.6828 149.204 97.6828 147.93C97.6828 146.655 96.6831 145.621 95.45 145.621C94.2169 145.621 93.2172 146.655 93.2172 147.93Z" fill="#888888"/>
<path d="M69.7734 147.93C69.7734 149.204 70.773 150.238 72.0061 150.238C73.2392 150.238 74.2389 149.204 74.2389 147.93C74.2389 146.655 73.2392 145.621 72.0061 145.621C70.773 145.621 69.7734 146.655 69.7734 147.93Z" fill="#888888"/>
<path d="M46.5156 147.93C46.5156 149.204 47.5152 150.238 48.7484 150.238C49.9815 150.238 50.9811 149.204 50.9811 147.93C50.9811 146.655 49.9815 145.621 48.7484 145.621C47.5152 145.621 46.5156 146.655 46.5156 147.93Z" fill="#888888"/>
<path d="M23.2578 147.93C23.2578 149.204 24.2574 150.238 25.4906 150.238C26.7237 150.238 27.7233 149.204 27.7233 147.93C27.7233 146.655 26.7237 145.621 25.4906 145.621C24.2574 145.621 23.2578 146.655 23.2578 147.93Z" fill="#888888"/>
<path d="M-3.90935e-06 147.93C-3.96163e-06 149.204 0.99963 150.238 2.23274 150.238C3.46585 150.238 4.46548 149.204 4.46548 147.93C4.46548 146.655 3.46585 145.621 2.23274 145.621C0.99963 145.621 -3.85708e-06 146.655 -3.90935e-06 147.93Z" fill="#888888"/>
<path d="M162.991 172.168C162.991 173.443 163.99 174.476 165.223 174.476C166.457 174.476 167.456 173.443 167.456 172.168C167.456 170.893 166.457 169.859 165.223 169.859C163.99 169.859 162.991 170.893 162.991 172.168Z" fill="#888888"/>
<path d="M139.733 172.168C139.733 173.443 140.733 174.476 141.966 174.476C143.199 174.476 144.198 173.443 144.198 172.168C144.198 170.893 143.199 169.859 141.966 169.859C140.733 169.859 139.733 170.893 139.733 172.168Z" fill="#888888"/>
<path d="M116.475 172.168C116.475 173.443 117.475 174.476 118.708 174.476C119.941 174.476 120.941 173.443 120.941 172.168C120.941 170.893 119.941 169.859 118.708 169.859C117.475 169.859 116.475 170.893 116.475 172.168Z" fill="#888888"/>
<path d="M93.2172 172.168C93.2172 173.443 94.2169 174.476 95.45 174.476C96.6831 174.476 97.6828 173.443 97.6828 172.168C97.6828 170.893 96.6831 169.859 95.45 169.859C94.2169 169.859 93.2172 170.893 93.2172 172.168Z" fill="#888888"/>
<path d="M69.7734 172.168C69.7734 173.443 70.773 174.476 72.0061 174.476C73.2392 174.476 74.2389 173.443 74.2389 172.168C74.2389 170.893 73.2392 169.859 72.0061 169.859C70.773 169.859 69.7734 170.893 69.7734 172.168Z" fill="#888888"/>
<path d="M46.5156 172.168C46.5156 173.443 47.5152 174.476 48.7483 174.476C49.9815 174.476 50.9811 173.443 50.9811 172.168C50.9811 170.893 49.9815 169.859 48.7483 169.859C47.5152 169.859 46.5156 170.893 46.5156 172.168Z" fill="#888888"/>
<path d="M23.2578 172.168C23.2578 173.443 24.2574 174.476 25.4906 174.476C26.7237 174.476 27.7233 173.443 27.7233 172.168C27.7233 170.893 26.7237 169.859 25.4906 169.859C24.2574 169.859 23.2578 170.893 23.2578 172.168Z" fill="#888888"/>
<path d="M-3.90935e-06 172.168C-3.96163e-06 173.443 0.99963 174.476 2.23274 174.476C3.46585 174.476 4.46548 173.443 4.46548 172.168C4.46548 170.893 3.46585 169.859 2.23274 169.859C0.99963 169.859 -3.85708e-06 170.893 -3.90935e-06 172.168Z" fill="#888888"/>
</svg>
