<svg width="137" height="321" viewBox="0 0 137 321" fill="none" xmlns="http://www.w3.org/2000/svg">
<path d="M128.159 4.23999C128.159 6.58167 129.995 8.47998 132.26 8.47998C134.525 8.47998 136.361 6.58167 136.361 4.23999C136.361 1.89831 134.525 -8.29717e-08 132.26 -1.85322e-07C129.995 -2.87673e-07 128.159 1.89831 128.159 4.23999Z" fill="#C94D35"/>
<path d="M85.4394 4.23999C85.4394 6.58167 87.2755 8.47998 89.5405 8.47998C91.8055 8.47998 93.6416 6.58167 93.6416 4.23999C93.6416 1.89831 91.8055 -8.29722e-08 89.5405 -1.85323e-07C87.2755 -2.87675e-07 85.4394 1.89831 85.4394 4.23999Z" fill="#C94D35"/>
<path d="M42.7197 4.23999C42.7197 6.58167 44.5558 8.47998 46.8208 8.47998C49.0858 8.47998 50.9219 6.58167 50.9219 4.23999C50.9219 1.89831 49.0858 -8.29715e-08 46.8208 -1.85322e-07C44.5558 -2.87673e-07 42.7197 1.89831 42.7197 4.23999Z" fill="#C94D35"/>
<path d="M6.08559e-05 4.23999C6.07569e-05 6.58167 1.83618 8.47998 4.10114 8.47998C6.36611 8.47998 8.20222 6.58167 8.20222 4.23999C8.20222 1.89831 6.36611 -8.29715e-08 4.10114 -1.85322e-07C1.83618 -2.87673e-07 6.09549e-05 1.89831 6.08559e-05 4.23999Z" fill="#C94D35"/>
<path d="M128.159 48.7603C128.159 51.1019 129.995 53.0002 132.26 53.0002C134.525 53.0002 136.361 51.1019 136.361 48.7603C136.361 46.4186 134.525 44.5203 132.26 44.5203C129.995 44.5203 128.159 46.4186 128.159 48.7603Z" fill="#C94D35"/>
<path d="M85.4394 48.7603C85.4394 51.1019 87.2755 53.0002 89.5405 53.0002C91.8055 53.0002 93.6416 51.1019 93.6416 48.7603C93.6416 46.4186 91.8055 44.5203 89.5405 44.5203C87.2755 44.5203 85.4394 46.4186 85.4394 48.7603Z" fill="#C94D35"/>
<path d="M42.7197 48.7603C42.7197 51.1019 44.5558 53.0002 46.8208 53.0002C49.0858 53.0002 50.9219 51.1019 50.9219 48.7603C50.9219 46.4186 49.0858 44.5203 46.8208 44.5203C44.5558 44.5203 42.7197 46.4186 42.7197 48.7603Z" fill="#C94D35"/>
<path d="M6.08613e-05 48.7603C6.07653e-05 51.1019 1.83618 53.0002 4.10114 53.0002C6.36611 53.0002 8.20222 51.1019 8.20222 48.7603C8.20222 46.4186 6.36611 44.5203 4.10114 44.5203C1.83618 44.5203 6.09573e-05 46.4186 6.08613e-05 48.7603Z" fill="#C94D35"/>
<path d="M128.159 93.2808C128.159 95.6224 129.995 97.5208 132.26 97.5208C134.525 97.5208 136.361 95.6224 136.361 93.2808C136.361 90.9391 134.525 89.0408 132.26 89.0408C129.995 89.0408 128.159 90.9391 128.159 93.2808Z" fill="#C94D35"/>
<path d="M85.4394 93.2808C85.4394 95.6224 87.2755 97.5208 89.5405 97.5208C91.8055 97.5208 93.6416 95.6224 93.6416 93.2808C93.6416 90.9391 91.8055 89.0408 89.5405 89.0408C87.2755 89.0408 85.4394 90.9391 85.4394 93.2808Z" fill="#C94D35"/>
<path d="M42.7197 93.2808C42.7197 95.6224 44.5558 97.5208 46.8208 97.5208C49.0858 97.5208 50.9219 95.6224 50.9219 93.2808C50.9219 90.9391 49.0858 89.0408 46.8208 89.0408C44.5558 89.0408 42.7197 90.9391 42.7197 93.2808Z" fill="#C94D35"/>
<path d="M6.08613e-05 93.2808C6.07653e-05 95.6224 1.83618 97.5208 4.10114 97.5208C6.36611 97.5208 8.20222 95.6224 8.20222 93.2808C8.20222 90.9391 6.36611 89.0408 4.10114 89.0408C1.83618 89.0408 6.09573e-05 90.9391 6.08613e-05 93.2808Z" fill="#C94D35"/>
<path d="M128.159 137.801C128.159 140.143 129.995 142.041 132.26 142.041C134.525 142.041 136.361 140.143 136.361 137.801C136.361 135.46 134.525 133.561 132.26 133.561C129.995 133.561 128.159 135.46 128.159 137.801Z" fill="#C94D35"/>
<path d="M85.4394 137.801C85.4394 140.143 87.2755 142.041 89.5405 142.041C91.8054 142.041 93.6416 140.143 93.6416 137.801C93.6416 135.46 91.8054 133.561 89.5405 133.561C87.2755 133.561 85.4394 135.46 85.4394 137.801Z" fill="#C94D35"/>
<path d="M42.7197 137.801C42.7197 140.143 44.5558 142.041 46.8208 142.041C49.0858 142.041 50.9219 140.143 50.9219 137.801C50.9219 135.46 49.0858 133.561 46.8208 133.561C44.5558 133.561 42.7197 135.46 42.7197 137.801Z" fill="#C94D35"/>
<path d="M6.08613e-05 137.801C6.07653e-05 140.143 1.83618 142.041 4.10114 142.041C6.36611 142.041 8.20222 140.143 8.20222 137.801C8.20222 135.46 6.36611 133.561 4.10114 133.561C1.83618 133.561 6.09573e-05 135.46 6.08613e-05 137.801Z" fill="#C94D35"/>
<path d="M128.159 182.675C128.159 185.016 129.995 186.915 132.26 186.915C134.525 186.915 136.361 185.016 136.361 182.675C136.361 180.333 134.525 178.435 132.26 178.435C129.995 178.435 128.159 180.333 128.159 182.675Z" fill="#C94D35"/>
<path d="M85.4393 182.675C85.4393 185.016 87.2755 186.915 89.5405 186.915C91.8054 186.915 93.6416 185.016 93.6416 182.675C93.6416 180.333 91.8054 178.435 89.5405 178.435C87.2755 178.435 85.4393 180.333 85.4393 182.675Z" fill="#C94D35"/>
<path d="M42.7197 182.675C42.7197 185.016 44.5558 186.915 46.8208 186.915C49.0858 186.915 50.9219 185.016 50.9219 182.675C50.9219 180.333 49.0858 178.435 46.8208 178.435C44.5558 178.435 42.7197 180.333 42.7197 182.675Z" fill="#C94D35"/>
<path d="M1.50849e-05 182.675C1.49889e-05 185.016 1.83614 186.915 4.10112 186.915C6.3661 186.915 8.20222 185.016 8.20222 182.675C8.20222 180.333 6.3661 178.435 4.10112 178.435C1.83614 178.435 1.51809e-05 180.333 1.50849e-05 182.675Z" fill="#C94D35"/>
<path d="M128.159 227.195C128.159 229.537 129.995 231.436 132.26 231.436C134.525 231.436 136.361 229.537 136.361 227.195C136.361 224.854 134.525 222.955 132.26 222.955C129.995 222.955 128.159 224.854 128.159 227.195Z" fill="#C94D35"/>
<path d="M85.4394 227.195C85.4394 229.537 87.2755 231.436 89.5405 231.436C91.8055 231.436 93.6416 229.537 93.6416 227.195C93.6416 224.854 91.8055 222.955 89.5405 222.955C87.2755 222.955 85.4394 224.854 85.4394 227.195Z" fill="#C94D35"/>
<path d="M42.7197 227.195C42.7197 229.537 44.5558 231.436 46.8208 231.436C49.0858 231.436 50.9219 229.537 50.9219 227.195C50.9219 224.854 49.0858 222.955 46.8208 222.955C44.5558 222.955 42.7197 224.854 42.7197 227.195Z" fill="#C94D35"/>
<path d="M4.56025e-05 227.195C4.55065e-05 229.537 1.83616 231.436 4.10113 231.436C6.36609 231.436 8.20221 229.537 8.20221 227.195C8.20221 224.854 6.36609 222.955 4.10113 222.955C1.83616 222.955 4.56985e-05 224.854 4.56025e-05 227.195Z" fill="#C94D35"/>
<path d="M128.159 271.715C128.159 274.057 129.995 275.956 132.26 275.956C134.525 275.956 136.361 274.057 136.361 271.715C136.361 269.374 134.525 267.475 132.26 267.475C129.995 267.475 128.159 269.374 128.159 271.715Z" fill="#C94D35"/>
<path d="M85.4394 271.715C85.4394 274.057 87.2755 275.956 89.5405 275.956C91.8055 275.956 93.6416 274.057 93.6416 271.715C93.6416 269.374 91.8055 267.475 89.5405 267.475C87.2755 267.475 85.4394 269.374 85.4394 271.715Z" fill="#C94D35"/>
<path d="M42.7197 271.715C42.7197 274.057 44.5558 275.956 46.8208 275.956C49.0858 275.956 50.9219 274.057 50.9219 271.715C50.9219 269.374 49.0858 267.475 46.8208 267.475C44.5558 267.475 42.7197 269.374 42.7197 271.715Z" fill="#C94D35"/>
<path d="M4.56025e-05 271.715C4.55065e-05 274.057 1.83616 275.956 4.10113 275.956C6.36609 275.956 8.20221 274.057 8.20221 271.715C8.20221 269.374 6.36609 267.475 4.10113 267.475C1.83616 267.475 4.56985e-05 269.374 4.56025e-05 271.715Z" fill="#C94D35"/>
<path d="M128.159 316.236C128.159 318.578 129.995 320.476 132.26 320.476C134.525 320.476 136.361 318.578 136.361 316.236C136.361 313.894 134.525 311.996 132.26 311.996C129.995 311.996 128.159 313.894 128.159 316.236Z" fill="#C94D35"/>
<path d="M85.4393 316.236C85.4393 318.578 87.2755 320.476 89.5405 320.476C91.8054 320.476 93.6416 318.578 93.6416 316.236C93.6416 313.894 91.8054 311.996 89.5405 311.996C87.2755 311.996 85.4393 313.894 85.4393 316.236Z" fill="#C94D35"/>
<path d="M42.7197 316.236C42.7197 318.578 44.5558 320.476 46.8208 320.476C49.0858 320.476 50.9219 318.578 50.9219 316.236C50.9219 313.894 49.0858 311.996 46.8208 311.996C44.5558 311.996 42.7197 313.894 42.7197 316.236Z" fill="#C94D35"/>
<path d="M4.56025e-05 316.236C4.55065e-05 318.578 1.83616 320.476 4.10113 320.476C6.36609 320.476 8.20221 318.578 8.20221 316.236C8.20221 313.894 6.36609 311.996 4.10113 311.996C1.83616 311.996 4.56985e-05 313.894 4.56025e-05 316.236Z" fill="#C94D35"/>
</svg>
